<?xml version="1.0" encoding="UTF-8" standalone="no"?>
<svg
   xmlns="http://www.w3.org/2000/svg"
   version="1.1"
   id="tile_back_0m"
   viewBox="0 0 19 26">
  <defs>
    <filter id="tileShadow" x="-8%" y="-5%" width="116%" height="116%">
      <feDropShadow dx="0" dy="0.04" stdDeviation="0.15" flood-color="#b5295e" flood-opacity="0.35"/>
    </filter>
    <pattern id="diamondPattern" x="0" y="0" width="16" height="16" patternUnits="userSpaceOnUse">
      <polygon points="8,1 15,8 8,15 1,8" fill="none" stroke="#e05595" stroke-width="0.5" opacity="0.2"/>
    </pattern>
  </defs>

  <!-- 所有内容缩放自 viewBox 0 0 139.764 200 → 0 0 19 26 -->
  <!-- sx=19/139.764≈0.13593  sy=26/200=0.13 -->
  <g transform="scale(0.13593, 0.13)">

    <!-- 牌体 -->
    <rect x="3" y="3" width="133.764" height="194" rx="7" ry="7"
          fill="#FAA9D0" filter="url(#tileShadow)"/>
    <!-- 外边缘高光 -->
    <rect x="3" y="3" width="133.764" height="194" rx="7" ry="7"
          fill="none" stroke="#ffeef6" stroke-width="1.5" opacity="0.6"/>
    <!-- 底纹 -->
    <rect x="4" y="4" width="131.764" height="192" rx="6.5" ry="6.5"
          fill="url(#diamondPattern)"/>
    <!-- 内框 -->
    <rect x="10" y="10" width="119.764" height="180" rx="4.5" ry="4.5"
          fill="none" stroke="#c0306e" stroke-width="1.6"/>

    <!-- 魔法阵（中心 69.882, 100） -->
    <g transform="translate(69.882,100)">

      <!-- ① 双圆环 r=52/50 -->
      <circle cx="0" cy="0" r="52" fill="none" stroke="#c0306e" stroke-width="1.4"/>
      <circle cx="0" cy="0" r="50" fill="none" stroke="#c0306e" stroke-width="0.5" opacity="0.5"/>

      <!-- ② 8段弧线 r=48 -->
      <path d="M6.27,-47.59 A48,48 0 0,1 29.22,-38.08"   fill="none" stroke="#c0306e" stroke-width="2" stroke-linecap="round"/>
      <path d="M38.08,-29.22 A48,48 0 0,1 47.59,-6.27"   fill="none" stroke="#c0306e" stroke-width="2" stroke-linecap="round"/>
      <path d="M47.59,6.27 A48,48 0 0,1 38.08,29.22"     fill="none" stroke="#c0306e" stroke-width="2" stroke-linecap="round"/>
      <path d="M29.22,38.08 A48,48 0 0,1 6.27,47.59"     fill="none" stroke="#c0306e" stroke-width="2" stroke-linecap="round"/>
      <path d="M-6.27,47.59 A48,48 0 0,1 -29.22,38.08"   fill="none" stroke="#c0306e" stroke-width="2" stroke-linecap="round"/>
      <path d="M-38.08,29.22 A48,48 0 0,1 -47.59,6.27"   fill="none" stroke="#c0306e" stroke-width="2" stroke-linecap="round"/>
      <path d="M-47.59,-6.27 A48,48 0 0,1 -38.08,-29.22" fill="none" stroke="#c0306e" stroke-width="2" stroke-linecap="round"/>
      <path d="M-29.22,-38.08 A48,48 0 0,1 -6.27,-47.59" fill="none" stroke="#c0306e" stroke-width="2" stroke-linecap="round"/>

      <!-- ③ 24刻度线 major -->
      <line x1="0" y1="-49" x2="0" y2="-52" stroke="#c0306e" stroke-width="1.2"/>
      <line x1="34.65" y1="-34.65" x2="36.77" y2="-36.77" stroke="#c0306e" stroke-width="1.2"/>
      <line x1="49" y1="0" x2="52" y2="0" stroke="#c0306e" stroke-width="1.2"/>
      <line x1="34.65" y1="34.65" x2="36.77" y2="36.77" stroke="#c0306e" stroke-width="1.2"/>
      <line x1="0" y1="49" x2="0" y2="52" stroke="#c0306e" stroke-width="1.2"/>
      <line x1="-34.65" y1="34.65" x2="-36.77" y2="36.77" stroke="#c0306e" stroke-width="1.2"/>
      <line x1="-49" y1="0" x2="-52" y2="0" stroke="#c0306e" stroke-width="1.2"/>
      <line x1="-34.65" y1="-34.65" x2="-36.77" y2="-36.77" stroke="#c0306e" stroke-width="1.2"/>
      <!-- minor -->
      <line x1="13.07" y1="-48.78" x2="13.46" y2="-50.23" stroke="#c0306e" stroke-width="0.7"/>
      <line x1="25.25" y1="-43.73" x2="26" y2="-45.03" stroke="#c0306e" stroke-width="0.7"/>
      <line x1="43.73" y1="-25.25" x2="45.03" y2="-26" stroke="#c0306e" stroke-width="0.7"/>
      <line x1="48.78" y1="-13.07" x2="50.23" y2="-13.46" stroke="#c0306e" stroke-width="0.7"/>
      <line x1="48.78" y1="13.07" x2="50.23" y2="13.46" stroke="#c0306e" stroke-width="0.7"/>
      <line x1="43.73" y1="25.25" x2="45.03" y2="26" stroke="#c0306e" stroke-width="0.7"/>
      <line x1="25.25" y1="43.73" x2="26" y2="45.03" stroke="#c0306e" stroke-width="0.7"/>
      <line x1="13.07" y1="48.78" x2="13.46" y2="50.23" stroke="#c0306e" stroke-width="0.7"/>
      <line x1="-13.07" y1="48.78" x2="-13.46" y2="50.23" stroke="#c0306e" stroke-width="0.7"/>
      <line x1="-25.25" y1="43.73" x2="-26" y2="45.03" stroke="#c0306e" stroke-width="0.7"/>
      <line x1="-43.73" y1="25.25" x2="-45.03" y2="26" stroke="#c0306e" stroke-width="0.7"/>
      <line x1="-48.78" y1="13.07" x2="-50.23" y2="13.46" stroke="#c0306e" stroke-width="0.7"/>
      <line x1="-48.78" y1="-13.07" x2="-50.23" y2="-13.46" stroke="#c0306e" stroke-width="0.7"/>
      <line x1="-43.73" y1="-25.25" x2="-45.03" y2="-26" stroke="#c0306e" stroke-width="0.7"/>
      <line x1="-25.25" y1="-43.73" x2="-26" y2="-45.03" stroke="#c0306e" stroke-width="0.7"/>
      <line x1="-13.07" y1="-48.78" x2="-13.46" y2="-50.23" stroke="#c0306e" stroke-width="0.7"/>

      <!-- ④ 8节点圆 r=44，放射线 -->
      <line x1="0" y1="-44" x2="0" y2="-30" stroke="#c0306e" stroke-width="0.7" opacity="0.6"/>
      <line x1="31.11" y1="-31.11" x2="21.21" y2="-21.21" stroke="#c0306e" stroke-width="0.7" opacity="0.6"/>
      <line x1="44" y1="0" x2="30" y2="0" stroke="#c0306e" stroke-width="0.7" opacity="0.6"/>
      <line x1="31.11" y1="31.11" x2="21.21" y2="21.21" stroke="#c0306e" stroke-width="0.7" opacity="0.6"/>
      <line x1="0" y1="44" x2="0" y2="30" stroke="#c0306e" stroke-width="0.7" opacity="0.6"/>
      <line x1="-31.11" y1="31.11" x2="-21.21" y2="21.21" stroke="#c0306e" stroke-width="0.7" opacity="0.6"/>
      <line x1="-44" y1="0" x2="-30" y2="0" stroke="#c0306e" stroke-width="0.7" opacity="0.6"/>
      <line x1="-31.11" y1="-31.11" x2="-21.21" y2="-21.21" stroke="#c0306e" stroke-width="0.7" opacity="0.6"/>
      <circle cx="0" cy="-44" r="2.5" fill="#FAA9D0" stroke="#c0306e" stroke-width="1"/>
      <circle cx="31.11" cy="-31.11" r="2.5" fill="#FAA9D0" stroke="#c0306e" stroke-width="1"/>
      <circle cx="44" cy="0" r="2.5" fill="#FAA9D0" stroke="#c0306e" stroke-width="1"/>
      <circle cx="31.11" cy="31.11" r="2.5" fill="#FAA9D0" stroke="#c0306e" stroke-width="1"/>
      <circle cx="0" cy="44" r="2.5" fill="#FAA9D0" stroke="#c0306e" stroke-width="1"/>
      <circle cx="-31.11" cy="31.11" r="2.5" fill="#FAA9D0" stroke="#c0306e" stroke-width="1"/>
      <circle cx="-44" cy="0" r="2.5" fill="#FAA9D0" stroke="#c0306e" stroke-width="1"/>
      <circle cx="-31.11" cy="-31.11" r="2.5" fill="#FAA9D0" stroke="#c0306e" stroke-width="1"/>

      <!-- ⑤ 八芒星 -->
      <polygon
         points="0,-38 5.74,-13.86 26.87,-26.87 13.86,-5.74 38,0 13.86,5.74 26.87,26.87 5.74,13.86 0,38 -5.74,13.86 -26.87,26.87 -13.86,5.74 -38,0 -13.86,-5.74 -26.87,-26.87 -5.74,-13.86"
         fill="#FAA9D0" fill-opacity="0.4"
         stroke="#c0306e" stroke-width="1.1" stroke-linejoin="round"/>

      <!-- ⑥ 八角星连线 {8/3} -->
      <polygon
         points="0,-38 26.87,26.87 -38,0 26.87,-26.87 0,38 -26.87,-26.87 38,0 -26.87,26.87"
         fill="none"
         stroke="#e05595" stroke-width="0.8" stroke-linejoin="round" opacity="0.7"/>

      <!-- ⑦ 中层圆 r=30 -->
      <circle cx="0" cy="0" r="30" fill="none" stroke="#c0306e" stroke-width="1.2"/>

      <!-- ⑧ 六芒星 r=22 -->
      <polygon points="0,-22 19.05,11 -19.05,11" fill="none" stroke="#c0306e" stroke-width="1.1"/>
      <polygon points="0,22 -19.05,-11 19.05,-11" fill="none" stroke="#c0306e" stroke-width="1.1"/>
      <circle cx="0" cy="0" r="22" fill="none" stroke="#e05595" stroke-width="0.7" stroke-dasharray="2,2.5"/>

      <!-- ⑨ 内圆 r=14，8个小点 -->
      <circle cx="0" cy="0" r="14" fill="none" stroke="#c0306e" stroke-width="1"/>
      <circle cx="0" cy="-14" r="1.5" fill="#c0306e"/>
      <circle cx="9.9" cy="-9.9" r="1.5" fill="#c0306e"/>
      <circle cx="14" cy="0" r="1.5" fill="#c0306e"/>
      <circle cx="9.9" cy="9.9" r="1.5" fill="#c0306e"/>
      <circle cx="0" cy="14" r="1.5" fill="#c0306e"/>
      <circle cx="-9.9" cy="9.9" r="1.5" fill="#c0306e"/>
      <circle cx="-14" cy="0" r="1.5" fill="#c0306e"/>
      <circle cx="-9.9" cy="-9.9" r="1.5" fill="#c0306e"/>

      <!-- ⑩ 中心三层 -->
      <circle cx="0" cy="0" r="8" fill="#e05595"/>
      <circle cx="0" cy="0" r="5" fill="#c0306e"/>
      <circle cx="0" cy="0" r="2.5" fill="#ffeef6"/>

    </g>

    <!-- 四角角标 -->
    <g transform="translate(19,19)">
      <polygon points="0,-6 5,0 0,6 -5,0" fill="none" stroke="#c0306e" stroke-width="1"/>
      <circle cx="0" cy="0" r="1.2" fill="#c0306e"/>
    </g>
    <g transform="translate(120.764,19)">
      <polygon points="0,-6 5,0 0,6 -5,0" fill="none" stroke="#c0306e" stroke-width="1"/>
      <circle cx="0" cy="0" r="1.2" fill="#c0306e"/>
    </g>
    <g transform="translate(19,181)">
      <polygon points="0,-6 5,0 0,6 -5,0" fill="none" stroke="#c0306e" stroke-width="1"/>
      <circle cx="0" cy="0" r="1.2" fill="#c0306e"/>
    </g>
    <g transform="translate(120.764,181)">
      <polygon points="0,-6 5,0 0,6 -5,0" fill="none" stroke="#c0306e" stroke-width="1"/>
      <circle cx="0" cy="0" r="1.2" fill="#c0306e"/>
    </g>

  </g>
</svg>
